<svg width="59" height="60" viewBox="0 0 59 60" fill="none" xmlns="http://www.w3.org/2000/svg">
    <path d="M29.1978 52.5C41.2802 52.5 51.0749 42.4264 51.0749 30C51.0749 17.5736 41.2802 7.5 29.1978 7.5C17.1154 7.5 7.32068 17.5736 7.32068 30C7.32068 42.4264 17.1154 52.5 29.1978 52.5Z" stroke="#010243" stroke-width="4" stroke-linecap="round" stroke-linejoin="round" />
    <path d="M29.1978 42.5V42.525" stroke="#010243" stroke-width="4" stroke-linecap="round" stroke-linejoin="round" />
    <path d="M29.1978 33.7499C29.1531 32.9384 29.3659 32.1338 29.8043 31.4575C30.2427 30.7811 30.883 30.2696 31.6286 29.9999C32.5423 29.6406 33.3624 29.068 34.0243 28.3273C34.6863 27.5866 35.172 26.698 35.4433 25.7314C35.7146 24.7648 35.764 23.7467 35.5877 22.7571C35.4114 21.7675 35.0141 20.8336 34.4272 20.0287C33.8403 19.2239 33.0797 18.5701 32.2054 18.119C31.3311 17.6678 30.3669 17.4315 29.3887 17.4287C28.4105 17.4259 27.445 17.6567 26.5683 18.1029C25.6915 18.5491 24.9275 19.1984 24.3362 19.9999" stroke="#010243" stroke-width="4" stroke-linecap="round" stroke-linejoin="round" />
</svg>
    
    