<svg width="35" height="35" viewBox="0 0 35 35" fill="none" xmlns="http://www.w3.org/2000/svg">
    <path d="M24.6354 16.0417H10.4558C8.88954 16.0417 7.61986 17.3475 7.61986 18.9584V27.7084C7.61986 29.3192 8.88954 30.625 10.4558 30.625H24.6354C26.2016 30.625 27.4713 29.3192 27.4713 27.7084V18.9584C27.4713 17.3475 26.2016 16.0417 24.6354 16.0417Z" stroke="black" stroke-width="2" stroke-linecap="round" stroke-linejoin="round"/>
    <path d="M17.5456 24.7917C18.3287 24.7917 18.9635 24.1387 18.9635 23.3333C18.9635 22.5279 18.3287 21.875 17.5456 21.875C16.7625 21.875 16.1276 22.5279 16.1276 23.3333C16.1276 24.1387 16.7625 24.7917 17.5456 24.7917Z" stroke="black" stroke-width="2" stroke-linecap="round" stroke-linejoin="round"/>
    <path d="M11.8737 16.0417V10.2083C11.8737 8.66124 12.4713 7.17751 13.535 6.08354C14.5987 4.98958 16.0413 4.375 17.5456 4.375C19.0499 4.375 20.4925 4.98958 21.5562 6.08354C22.6199 7.17751 23.2174 8.66124 23.2174 10.2083V16.0417" stroke="black" stroke-width="2" stroke-linecap="round" stroke-linejoin="round"/>
    </svg>
    